<?xml version="1.0" encoding="utf-8"?>
<!-- Generator: Adobe Illustrator 19.2.1, SVG Export Plug-In . SVG Version: 6.00 Build 0)  -->
<svg version="1.1" id="layer" xmlns="http://www.w3.org/2000/svg" xmlns:xlink="http://www.w3.org/1999/xlink" x="0px" y="0px"
	 viewBox="0 0 652 652" style="enable-background:new 0 0 652 652;" xml:space="preserve">
<path d="M178.8,282.8h-26.7l30.6,43.7l-30.6,43.7h26.7l30.6-43.7L178.8,282.8z M132.7,285.6l-13.3,19l15.3,21.8l-15.3,21.8H88.9
	l-15.3,21.8h57.2l30.6-43.7L132.7,285.6z M56.2,326.5l-30.6,43.7h26.6l30.6-43.7H56.2z M98.1,304.6l15.3-21.8H25.6l15.3,21.8H98.1z"
	/>
<path d="M279.9,301.8l-13.3-19l-61.1,87.3h26.7L279.9,301.8z M290.5,317.1l-21.9,31.2h17.1l15.3,21.8h26.7L290.5,317.1z"/>
<path d="M577.8,301.8l-13.3-19l-61.1,87.3H530L577.8,301.8z M588.4,317.1l-21.9,31.2h17.1l15.3,21.8h26.6L588.4,317.1z"/>
<path d="M373.2,282.8h-26.7l37.2,53.1l13.3-19L373.2,282.8z M442.2,282.8l-47.8,68.3l13.3,19l34.5-49.3l10.5,15l13.3-19L442.2,282.8
	z M511.1,282.8l-47.8,68.3l13.3,19l61.2-87.3H511.1z"/>
<polygon points="319.9,282.8 293.2,282.8 354.4,370.1 381,370.1 "/>
</svg>
